<svg xmlns="http://www.w3.org/2000/svg" width="317" height="317" viewBox="0 0 317 317">
  <defs>
    <style>
      .cls-1 {
        fill: #f0f2f2;
        fill-rule: evenodd;
      }
    </style>
  </defs>
  <path id="CLOCK.SVG" class="cls-1" d="M1077.63,208.861a21.107,21.107,0,0,0-15.85-20.383V134.894a5.28,5.28,0,1,0-10.56,0v53.584a21.1,21.1,0,0,0-15.1,15.1H998.383a5.284,5.284,0,0,0,0,10.567h37.737A21.085,21.085,0,0,0,1077.63,208.861Zm-21.13,10.566a10.567,10.567,0,1,1,10.57-10.566A10.578,10.578,0,0,1,1056.5,219.427Zm0-116.233a5.277,5.277,0,0,0,5.28-5.283V92.627a5.28,5.28,0,1,0-10.56,0v5.283A5.277,5.277,0,0,0,1056.5,103.194Zm-5.28,216.617v5.283a5.28,5.28,0,1,0,10.56,0v-5.283A5.28,5.28,0,1,0,1051.22,319.811Zm121.51-105.667a5.284,5.284,0,1,0,0-10.567h-5.28a5.284,5.284,0,0,0,0,10.567h5.28ZM940.267,203.577a5.284,5.284,0,1,0,0,10.567h5.283a5.284,5.284,0,0,0,0-10.567h-5.283Zm194.683-67.891a5.283,5.283,0,0,0,3.74-1.547l3.73-3.736a5.282,5.282,0,0,0-7.47-7.47l-3.73,3.735A5.283,5.283,0,0,0,1134.95,135.686ZM974.312,283.578l-3.735,3.735a5.283,5.283,0,1,0,7.471,7.471l3.735-3.736A5.282,5.282,0,0,0,974.312,283.578Zm7.471-156.91-3.735-3.735a5.282,5.282,0,0,0-7.471,7.47l3.735,3.736A5.283,5.283,0,0,0,981.783,126.668ZM1056.5,51C969.1,51,898,122.1,898,209.5S969.1,368,1056.5,368a158.015,158.015,0,0,0,55.02-9.822,5.282,5.282,0,1,0-3.67-9.906,147.619,147.619,0,0,1-51.35,9.161c-81.569,0-147.933-66.364-147.933-147.933S974.931,61.567,1056.5,61.567s147.93,66.364,147.93,147.933a147.458,147.458,0,0,1-9.16,51.349,5.284,5.284,0,0,0,9.91,3.672A157.92,157.92,0,0,0,1215,209.5C1215,122.1,1143.9,51,1056.5,51Zm105.67,217.15v-5.817a5.285,5.285,0,0,0-10.57,0v5.838a26.348,26.348,0,0,0-14.89,8.813,18.147,18.147,0,0,0-4.19,13.753,19.294,19.294,0,0,0,7.3,13.16l11.78,9.156v28.731a15.837,15.837,0,0,1-10.57-14.878,5.28,5.28,0,1,0-10.56,0,26.463,26.463,0,0,0,21.13,25.883v4.644a5.285,5.285,0,0,0,10.57,0v-4.66a26.379,26.379,0,0,0,14.89-8.812,18.183,18.183,0,0,0,4.19-13.763,19.235,19.235,0,0,0-7.31-13.145l-11.77-9.167V279.155a15.829,15.829,0,0,1,10.56,14.878,5.285,5.285,0,0,0,10.57,0A26.464,26.464,0,0,0,1162.17,268.15Zm5.29,57.24a8.672,8.672,0,0,1,3.28,5.907,7.656,7.656,0,0,1-1.75,5.838,15.78,15.78,0,0,1-6.82,4.623V321.269Zm-21.15-29.835a8.655,8.655,0,0,1-3.28-5.917,7.69,7.69,0,0,1,1.74-5.833,15.8,15.8,0,0,1,6.83-4.623v20.483Z" transform="translate(-898 -51)"/>
</svg>
